Coordinates
version=1
nRows=15
nColumns=46
inDegrees=yes

Units are S.I. units (second, meters, Newtons, ...)
Angles are in degrees.

endheader
time	pelvis_tilt	pelvis_list	pelvis_rotation	pelvis_tx	pelvis_ty	pelvis_tz	bb_angle	bb_tx	bb_ty	bb_tz	hip_flexion_r	hip_adduction_r	hip_rotation_r	knee_angle_r	knee_angle_r_beta	ankle_angle_r	subtalar_angle_r	mtp_angle_r	crank_angle_r	hip_flexion_l	hip_adduction_l	hip_rotation_l	knee_angle_l	knee_angle_l_beta	ankle_angle_l	subtalar_angle_l	mtp_angle_l	crank_angle_l	lumbar_extension	lumbar_bending	lumbar_rotation	arm_flex_r	arm_add_r	arm_rot_r	elbow_flex_r	pro_sup_r	wrist_flex_r	wrist_dev_r	arm_flex_l	arm_add_l	arm_rot_l	elbow_flex_l	pro_sup_l	wrist_flex_l	wrist_dev_l
      0.00500000	    -12.66531867	     -3.96377426	      0.50330459	      0.05630418	      1.10193760	     -0.26359032	      0.00000000	      0.50000000	      0.00000000	      0.25000000	     79.57899190	     -4.05941047	     -2.60323215	     89.27274631	      1.55810336	     12.78090640	     -7.60424796	      0.00000000	      0.00000000	     45.62431322	    -11.28154442	     -0.76438365	     65.74402414	      1.14744968	      9.80994010	     -0.79454148	      0.00000000	      0.00000000	    -51.43748471	      2.39333667	      4.70011660	     89.44163302	    -12.88804115	     38.69413364	     28.91763292	     27.67375022	      0.00000000	      0.00000000	     89.35395724	     -9.51477230	     37.71605191	     32.58454615	     28.99122501	      0.00000000	      0.00000000
      0.01000000	    -12.69232418	     -3.99751051	      0.50787347	      0.05629366	      1.10194759	     -0.26361115	      0.00000000	      0.50000000	      0.00000000	      0.25000000	     79.61340647	     -4.04227979	     -2.61120315	     89.30818428	      1.55872186	     12.80080414	     -7.61189688	      0.00000000	      0.00000000	     45.63756162	    -11.29661922	     -0.73532731	     65.67223718	      1.14619677	      9.72512988	     -0.83722595	      0.00000000	      0.00000000	    -51.41514463	      2.40581468	      4.84551633	     89.42612383	    -12.62732697	     36.50915457	     28.42696267	     29.85160978	      0.00000000	      0.00000000	     89.36360210	     -9.01964493	     36.58062484	     31.74109819	     30.90620691	      0.00000000	      0.00000000
      0.01500000	    -12.71563095	     -3.98708663	      0.46180835	      0.05630386	      1.10190791	     -0.26351524	      0.00000000	      0.50000000	      0.00000000	      0.25000000	     79.66709662	     -3.99020592	     -2.57522705	     89.35556093	      1.55954874	     12.82187734	     -7.57421017	      0.00000000	      0.00000000	     45.62148405	    -11.32534594	     -0.78035643	     65.61162832	      1.14513894	      9.79561063	     -0.74124337	      0.00000000	      0.00000000	    -51.38876881	      2.36491833	      4.79914415	     89.43638146	    -12.62460303	     37.03533099	     28.18149180	     30.61371985	      0.00000000	      0.00000000	     89.35545110	     -9.23484219	     36.81477498	     31.81004384	     31.69748691	      0.00000000	      0.00000000
      0.02000000	    -12.52119078	     -4.10602148	      0.59641788	      0.05623856	      1.10234770	     -0.26363075	      0.00000000	      0.50000000	      0.00000000	      0.25000000	     79.40785670	     -4.08168995	     -2.75468410	     89.37796183	      1.55993971	     12.94988366	     -7.67592210	      0.00000000	      0.00000000	     45.42584676	    -11.28793489	     -0.51981449	     65.51490259	      1.14345076	      9.77910581	     -0.76559961	      0.00000000	      0.00000000	    -51.74491730	      2.55269888	      4.82195249	     89.41947564	    -12.78474554	     36.34386016	     29.01809447	     31.29507455	      0.00000000	      0.00000000	     89.32004308	     -9.41864336	     36.08929847	     32.63126430	     32.35213803	      0.00000000	      0.00000000
      0.02500000	    -12.76212003	     -4.02089630	      0.51739338	      0.05624819	      1.10203502	     -0.26352678	      0.00000000	      0.50000000	      0.00000000	      0.25000000	     79.73636603	     -4.05678346	     -2.64256996	     89.46571449	      1.56147129	     12.97869666	     -7.60549962	      0.00000000	      0.00000000	     45.63776636	    -11.26899780	     -0.66804642	     65.45424845	      1.14239214	      9.66580204	     -0.79771546	      0.00000000	      0.00000000	    -51.36093110	      2.45541007	      4.76789994	     89.44138962	    -12.71523067	     37.21304662	     28.15777433	     31.35916648	      0.00000000	      0.00000000	     89.35314791	     -9.40455887	     36.89046269	     31.77665657	     32.46004082	      0.00000000	      0.00000000
      0.03000000	    -12.67796758	     -4.07981538	      0.51840158	      0.05628216	      1.10215416	     -0.26354394	      0.00000000	      0.50000000	      0.00000000	      0.25000000	     79.66252816	     -4.04535937	     -2.69284307	     89.51106711	      1.56226284	     13.00462127	     -7.54422726	      0.00000000	      0.00000000	     45.52818149	    -11.32886852	     -0.63063206	     65.40282966	      1.14149472	      9.75771769	     -0.61397314	      0.00000000	      0.00000000	    -51.45553755	      2.50465102	      4.84443179	     89.44357298	    -12.74679342	     37.17992003	     28.22891800	     31.66463306	      0.00000000	      0.00000000	     89.34579685	     -9.39461178	     36.83107691	     31.80858119	     32.76619129	      0.00000000	      0.00000000
      0.03500000	    -12.74247962	     -4.03946376	      0.52380437	      0.05625982	      1.10205059	     -0.26355859	      0.00000000	      0.50000000	      0.00000000	      0.25000000	     79.77743178	     -4.07240912	     -2.65213446	     89.57861050	      1.56344169	     12.94718635	     -7.60017449	      0.00000000	      0.00000000	     45.56969094	    -11.27214967	     -0.66169370	     65.32840041	      1.14019568	      9.64434913	     -0.82561476	      0.00000000	      0.00000000	    -51.37452558	      2.48477992	      4.77404504	     89.44576413	    -12.73821873	     37.47106050	     28.09495053	     31.90310907	      0.00000000	      0.00000000	     89.34952820	     -9.50101211	     37.07026853	     31.73680951	     33.05954710	      0.00000000	      0.00000000
      0.04000000	    -12.76407335	     -4.03021953	      0.48277168	      0.05625811	      1.10200473	     -0.26355531	      0.00000000	      0.50000000	      0.00000000	      0.25000000	     79.83656751	     -4.03086283	     -2.59973448	     89.63193548	      1.56437239	     12.92693022	     -7.56010779	      0.00000000	      0.00000000	     45.54658506	    -11.27063342	     -0.68087983	     65.26002067	      1.13900223	      9.69214630	     -0.80696195	      0.00000000	      0.00000000	    -51.34868753	      2.47748165	      4.82138570	     89.44053672	    -12.74090361	     37.44757345	     28.03869510	     32.12787675	      0.00000000	      0.00000000	     89.34579521	     -9.49407873	     37.07935442	     31.64175694	     33.31612496	      0.00000000	      0.00000000
      0.04500000	    -12.76148312	     -4.06047427	      0.47721537	      0.05625363	      1.10204598	     -0.26355836	      0.00000000	      0.50000000	      0.00000000	      0.25000000	     79.84385720	     -4.02403751	     -2.65460597	     89.68033390	      1.56521710	     12.99039709	     -7.61619977	      0.00000000	      0.00000000	     45.52352742	    -11.30066835	     -0.67366418	     65.19921498	      1.13794097	      9.64252164	     -0.81985163	      0.00000000	      0.00000000	    -51.36437136	      2.47216294	      4.80728345	     89.44303850	    -12.58341941	     36.62017282	     27.80872152	     33.25129531	      0.00000000	      0.00000000	     89.35198798	     -9.35925656	     36.53081868	     31.39305999	     34.40236573	      0.00000000	      0.00000000
      0.05000000	    -12.50211512	     -4.11893675	      0.48611534	      0.05631425	      1.10261199	     -0.26357307	      0.00000000	      0.50000000	      0.00000000	      0.25000000	     79.54594780	     -4.01002953	     -2.73465677	     89.70907997	      1.56571881	     13.02153465	     -7.64223465	      0.00000000	      0.00000000	     45.17894326	    -11.38442566	     -0.69620386	     65.05545668	      1.13543192	      9.71408551	     -0.64676967	      0.00000000	      0.00000000	    -51.77872174	      2.51127940	      4.90224023	     89.43016507	    -12.72769469	     35.87425532	     28.58159761	     33.77748491	      0.00000000	      0.00000000	     89.32804579	     -9.47916858	     35.84965008	     32.11555356	     34.90690566	      0.00000000	      0.00000000
      0.05500000	    -12.73738994	     -4.06539139	      0.45820804	      0.05625233	      1.10213005	     -0.26355969	      0.00000000	      0.50000000	      0.00000000	      0.25000000	     79.86797523	     -4.01411760	     -2.64584170	     89.77389595	      1.56685007	     12.94984542	     -7.58001026	      0.00000000	      0.00000000	     45.43303088	    -11.32076593	     -0.71911048	     65.05583661	      1.13543855	      9.64412848	     -0.80088363	      0.00000000	      0.00000000	    -51.40834762	      2.48334300	      4.84661366	     89.44633058	    -12.68618020	     36.81526352	     27.88483149	     33.71179227	      0.00000000	      0.00000000	     89.35155474	     -9.49227340	     36.70940709	     31.45995727	     34.90368483	      0.00000000	      0.00000000
      0.06000000	    -12.76081393	     -4.07690449	      0.44119243	      0.05621892	      1.10206417	     -0.26350670	      0.00000000	      0.50000000	      0.00000000	      0.25000000	     79.92595872	     -3.98456742	     -2.63201124	     89.83753724	      1.56796082	     12.98258761	     -7.58675826	      0.00000000	      0.00000000	     45.43763408	    -11.33504069	     -0.70844326	     65.00248996	      1.13450747	      9.66431146	     -0.75070703	      0.00000000	      0.00000000	    -51.38524725	      2.47272397	      4.86227561	     89.44787394	    -12.75481331	     36.95749123	     27.89899012	     33.78459861	      0.00000000	      0.00000000	     89.35358838	     -9.52486935	     36.80460738	     31.45000526	     35.00831299	      0.00000000	      0.00000000
      0.06500000	    -12.76596271	     -4.09783074	      0.41521791	      0.05622346	      1.10206455	     -0.26347053	      0.00000000	      0.50000000	      0.00000000	      0.25000000	     79.95496025	     -3.95198696	     -2.64387442	     89.88440433	      1.56877880	     12.99777508	     -7.57711716	      0.00000000	      0.00000000	     45.41390395	    -11.37188786	     -0.72042554	     64.94450434	      1.13349543	      9.69141436	     -0.70777106	      0.00000000	      0.00000000	    -51.38987892	      2.47758040	      4.92931185	     89.44854088	    -12.77637717	     36.78031604	     27.91035112	     34.08024635	      0.00000000	      0.00000000	     89.35380344	     -9.48137233	     36.70129371	     31.37749844	     35.30569475	      0.00000000	      0.00000000
      0.07000000	    -12.76598841	     -4.10013777	      0.42757655	      0.05622016	      1.10208428	     -0.26350892	      0.00000000	      0.50000000	      0.00000000	      0.25000000	     79.98449400	     -3.97788233	     -2.65585555	     89.94618348	      1.56985705	     12.99056111	     -7.59941645	      0.00000000	      0.00000000	     45.38869881	    -11.35731137	     -0.71972981	     64.86847473	      1.13216846	      9.64039714	     -0.75744795	      0.00000000	      0.00000000	    -51.39027987	      2.48721582	      4.90806634	     89.44534398	    -12.78015137	     36.78295227	     27.85985406	     34.39092963	      0.00000000	      0.00000000	     89.35843118	     -9.50192449	     36.67849803	     31.31696309	     35.62360639	      0.00000000	      0.00000000
      0.07500000	    -12.74874499	     -4.10170430	      0.42430953	      0.05623789	      1.10210267	     -0.26352146	      0.00000000	      0.50000000	      0.00000000	      0.25000000	     80.00255288	     -3.98261183	     -2.64772701	     90.00194258	      1.57083023	     12.97770761	     -7.56245573	      0.00000000	      0.00000000	     45.33949909	    -11.36021820	     -0.73127343	     64.80636574	      1.13108446	      9.65270252	     -0.72264142	      0.00000000	      0.00000000	    -51.41413850	      2.50258637	      4.93005407	     89.44720454	    -12.78483308	     36.68690953	     27.86548452	     34.61921564	      0.00000000	      0.00000000	     89.35704633	     -9.50096119	     36.61387521	     31.30592028	     35.85752818	      0.00000000	      0.00000000
